<?xml version="1.0" encoding="UTF-8"?>
<svg version="1.1" xmlns="http://www.w3.org/2000/svg" width="1024" height="1024">
<path d="M0 0 C337.92 0 675.84 0 1024 0 C1024 337.92 1024 675.84 1024 1024 C686.08 1024 348.16 1024 0 1024 C0 686.08 0 348.16 0 0 Z " fill="#300E49" transform="translate(0,0)"/>
<path d="M0 0 C0.99061935 0.00081573 0.99061935 0.00081573 2.00125122 0.00164795 C12.70067521 0.04208845 22.26086371 0.90698936 32.375 4.375 C33.01920898 4.59462402 33.66341797 4.81424805 34.32714844 5.04052734 C46.9324805 9.43838764 58.17168006 15.77892869 68.375 24.375 C69.17550781 25.02984375 69.97601562 25.6846875 70.80078125 26.359375 C90.09620452 42.80399701 102.5215571 67.27480314 105.375 92.375 C106.96258414 121.3497745 101.34061239 150.1800974 81.85546875 172.68359375 C74.28282758 180.90020755 66.89348213 188.38130652 57.375 194.375 C56.65699219 194.87257813 55.93898438 195.37015625 55.19921875 195.8828125 C33.72129994 210.05304564 4.27298438 214.20232671 -20.70898438 209.29394531 C-36.08477147 205.6670252 -50.07269117 198.91130785 -62.625 189.375 C-65.72262743 190.75021042 -67.82491737 192.32927776 -70.1875 194.75 C-70.76628906 195.33523438 -71.34507812 195.92046875 -71.94140625 196.5234375 C-75.12668621 200.02650641 -76.83794736 202.22335537 -77.3125 207 C-79.12490924 217.18630019 -88.8317812 224.89050151 -95.875 231.92578125 C-97.16132324 233.21853218 -97.16132324 233.21853218 -98.47363281 234.53739929 C-100.27285611 236.34232295 -102.07464771 238.14468981 -103.87890625 239.94458008 C-106.62648387 242.68898215 -109.36041557 245.44649858 -112.09375 248.20507812 C-113.85335587 249.96695596 -115.61374594 251.72805103 -117.375 253.48828125 C-118.18356445 254.30605545 -118.99212891 255.12382965 -119.82519531 255.96638489 C-125.38086543 261.47736891 -130.66237528 266.68311314 -138.5625 268.0625 C-146.53676394 267.48510711 -152.67622231 260.65680059 -157.99609375 255.3046875 C-160.50632916 252.3309314 -161.52143093 250.0352528 -162.125 246.1875 C-160.64535443 234.90520253 -148.91423609 226.35814816 -141.1875 218.8125 C-138.6016725 216.27336771 -136.02020063 213.72986779 -133.44140625 211.18359375 C-132.5216803 210.27668541 -132.5216803 210.27668541 -131.58337402 209.35145569 C-127.89076897 205.69075007 -124.35456958 201.95359408 -120.99291992 197.9831543 C-118.93765506 195.5669434 -116.73317266 193.31362421 -114.5 191.0625 C-113.28957031 189.83080078 -113.28957031 189.83080078 -112.0546875 188.57421875 C-108.71840306 185.55439859 -106.08846511 183.52433317 -101.5625 183.0625 C-98.72947618 183.36388551 -97.02838972 183.89599094 -94.625 185.375 C-94.40070313 184.82328125 -94.17640625 184.2715625 -93.9453125 183.703125 C-92.22114817 180.66288256 -89.99984178 178.56074327 -87.5 176.125 C-86.58992188 175.23296875 -85.67984375 174.3409375 -84.7421875 173.421875 C-83.69417969 172.40867187 -83.69417969 172.40867187 -82.625 171.375 C-83.0375 170.75496094 -83.45 170.13492188 -83.875 169.49609375 C-100.87823175 143.42194148 -109.84592622 114.56886055 -103.49536133 83.1105957 C-96.80076127 55.43144348 -80.27573606 30.80398939 -56.12890625 15.51977539 C-38.63156832 4.96525452 -20.37411939 -0.02839599 0 0 Z " fill="#300F49" transform="translate(513.625,299.625)"/>
<path d="M0 0 C0.99061935 0.00081573 0.99061935 0.00081573 2.00125122 0.00164795 C12.70067521 0.04208845 22.26086371 0.90698936 32.375 4.375 C33.01920898 4.59462402 33.66341797 4.81424805 34.32714844 5.04052734 C46.9324805 9.43838764 58.17168006 15.77892869 68.375 24.375 C69.17550781 25.02984375 69.97601562 25.6846875 70.80078125 26.359375 C90.09620452 42.80399701 102.5215571 67.27480314 105.375 92.375 C106.96258414 121.3497745 101.34061239 150.1800974 81.85546875 172.68359375 C74.28282758 180.90020755 66.89348213 188.38130652 57.375 194.375 C56.65699219 194.87257813 55.93898438 195.37015625 55.19921875 195.8828125 C33.72129994 210.05304564 4.27298438 214.20232671 -20.70898438 209.29394531 C-36.08477147 205.6670252 -50.07269117 198.91130785 -62.625 189.375 C-65.72262743 190.75021042 -67.82491737 192.32927776 -70.1875 194.75 C-70.76628906 195.33523438 -71.34507812 195.92046875 -71.94140625 196.5234375 C-75.12668621 200.02650641 -76.83794736 202.22335537 -77.3125 207 C-79.12490924 217.18630019 -88.8317812 224.89050151 -95.875 231.92578125 C-97.16132324 233.21853218 -97.16132324 233.21853218 -98.47363281 234.53739929 C-100.27285611 236.34232295 -102.07464771 238.14468981 -103.87890625 239.94458008 C-106.62648387 242.68898215 -109.36041557 245.44649858 -112.09375 248.20507812 C-113.85335587 249.96695596 -115.61374594 251.72805103 -117.375 253.48828125 C-118.18356445 254.30605545 -118.99212891 255.12382965 -119.82519531 255.96638489 C-125.38086543 261.47736891 -130.66237528 266.68311314 -138.5625 268.0625 C-146.53676394 267.48510711 -152.67622231 260.65680059 -157.99609375 255.3046875 C-160.50632916 252.3309314 -161.52143093 250.0352528 -162.125 246.1875 C-160.64535443 234.90520253 -148.91423609 226.35814816 -141.1875 218.8125 C-138.6016725 216.27336771 -136.02020063 213.72986779 -133.44140625 211.18359375 C-132.5216803 210.27668541 -132.5216803 210.27668541 -131.58337402 209.35145569 C-127.89076897 205.69075007 -124.35456958 201.95359408 -120.99291992 197.9831543 C-118.93765506 195.5669434 -116.73317266 193.31362421 -114.5 191.0625 C-113.28957031 189.83080078 -113.28957031 189.83080078 -112.0546875 188.57421875 C-108.71840306 185.55439859 -106.08846511 183.52433317 -101.5625 183.0625 C-98.72947618 183.36388551 -97.02838972 183.89599094 -94.625 185.375 C-94.40070313 184.82328125 -94.17640625 184.2715625 -93.9453125 183.703125 C-92.22114817 180.66288256 -89.99984178 178.56074327 -87.5 176.125 C-86.58992188 175.23296875 -85.67984375 174.3409375 -84.7421875 173.421875 C-83.69417969 172.40867187 -83.69417969 172.40867187 -82.625 171.375 C-83.0375 170.75496094 -83.45 170.13492188 -83.875 169.49609375 C-100.87823175 143.42194148 -109.84592622 114.56886055 -103.49536133 83.1105957 C-96.80076127 55.43144348 -80.27573606 30.80398939 -56.12890625 15.51977539 C-38.63156832 4.96525452 -20.37411939 -0.02839599 0 0 Z M-63.75 48.5 C-72.20559805 58.48350899 -77.95465773 69.86045949 -81.625 82.375 C-81.98980469 83.5403125 -82.35460937 84.705625 -82.73046875 85.90625 C-84.20387524 91.98214557 -84.00797094 98.22136456 -84 104.4375 C-83.99838867 105.73212158 -83.99677734 107.02674316 -83.99511719 108.3605957 C-83.8754557 117.68656608 -82.97139113 125.61119945 -79.625 134.375 C-79.35945313 135.22707031 -79.09390625 136.07914062 -78.8203125 136.95703125 C-71.65226772 158.08569659 -53.66059171 173.58405882 -34.25 183.1875 C-12.62852186 192.18603425 12.11873467 192.4422197 33.83984375 183.609375 C42.32976563 179.94452803 49.45541654 175.56620625 56.375 169.375 C57.17808594 168.7665625 57.98117187 168.158125 58.80859375 167.53125 C75.0255911 153.90601022 82.92746214 132.83913598 85.375 112.375 C86.82672319 89.1950264 80.2573803 67.50567152 64.92480469 49.68994141 C49.58683512 32.59050956 28.7849227 21.33007011 5.58984375 20.0234375 C-21.02774264 19.22832139 -45.32154881 29.12463235 -63.75 48.5 Z " fill="#FCFBFC" transform="translate(513.625,299.625)"/>
<path d="M0 0 C4.62 0 9.24 0 14 0 C14 4.29 14 8.58 14 13 C14.886875 12.9175 15.77375 12.835 16.6875 12.75 C24.78142473 12.73348179 32.95539168 16.30290481 40 20 C38.13236819 25.72210596 36.14710968 31.37661751 34 37 C27.28851311 34.79037201 20.65113513 32.3843692 14 30 C14 38.91 14 47.82 14 57 C17.3 57.99 20.6 58.98 24 60 C32.29546096 63.65976219 37.95143965 67.75293262 42 76 C44.43357882 83.73878065 43.74914499 92.303867 40.3828125 99.61328125 C36.19591234 106.83982363 31.38315093 111.70239358 23.41015625 114.42578125 C20.12289387 115.20897018 17.36065227 115.29223063 14 115 C14 118.96 14 122.92 14 127 C9.38 127 4.76 127 0 127 C0 123.37 0 119.74 0 116 C-1.175625 116.0825 -2.35125 116.165 -3.5625 116.25 C-13.3763695 116.25 -23.55278614 112.82697935 -32 108 C-31.34496718 103.94180817 -30.05440879 100.46028718 -28.4375 96.6875 C-27.75494141 95.08455078 -27.75494141 95.08455078 -27.05859375 93.44921875 C-26.53458984 92.23685547 -26.53458984 92.23685547 -26 91 C-25.46375 91.17015625 -24.9275 91.3403125 -24.375 91.515625 C-16.32516004 94.00472025 -8.18063828 95.98950415 0 98 C0 89.42 0 80.84 0 72 C-3.465 71.505 -3.465 71.505 -7 71 C-16.19726291 67.67711792 -23.58906336 62.59062335 -28.15234375 53.7734375 C-31.12242944 46.02657806 -30.98239633 37.88142267 -28.02734375 30.16015625 C-24.23000492 22.17563773 -18.84783308 17.90365535 -11 14 C-8.24921116 13.08307039 -6.64051087 12.89113917 -3.8125 12.9375 C-1.9253125 12.9684375 -1.9253125 12.9684375 0 13 C0 8.71 0 4.42 0 0 Z " fill="#FBFBFC" transform="translate(508,341)"/>
<path d="M0 0 C6.24209328 4.61669043 10.0463169 12.30500992 11.68359375 19.78125 C13.22957029 33.14535831 12.07700096 46.6325648 4.03515625 57.8203125 C-1.69698156 64.72101918 -7.96489062 69.484185 -16.96484375 70.8203125 C-19.7894256 70.93903881 -22.57845059 71.00535907 -25.40234375 71.0078125 C-26.14033203 71.02005859 -26.87832031 71.03230469 -27.63867188 71.04492188 C-28.36376953 71.04685547 -29.08886719 71.04878906 -29.8359375 71.05078125 C-30.8093811 71.05694458 -30.8093811 71.05694458 -31.80249023 71.06323242 C-33.96484375 70.8203125 -33.96484375 70.8203125 -39.96484375 68.8203125 C-39.96484375 79.0503125 -39.96484375 89.2803125 -39.96484375 99.8203125 C-45.57484375 99.8203125 -51.18484375 99.8203125 -56.96484375 99.8203125 C-56.96484375 65.8303125 -56.96484375 31.8403125 -56.96484375 -3.1796875 C-52.01484375 -3.1796875 -47.06484375 -3.1796875 -41.96484375 -3.1796875 C-41.63484375 -0.8696875 -41.30484375 1.4403125 -40.96484375 3.8203125 C-40.40796875 3.42199219 -39.85109375 3.02367187 -39.27734375 2.61328125 C-26.41815833 -6.31429512 -13.98408119 -8.39600898 0 0 Z " fill="#FBFBFC" transform="translate(633.96484375,625.1796875)"/>
<path d="M0 0 C7.38670628 6.23379024 11.9066257 14.23607797 13.125 23.8125 C14.04858874 37.48871785 11.83985853 49.00874549 2.8125 59.5 C-7.72916391 68.57073406 -17.9703745 69.76042347 -31.47119141 69.05517578 C-39.63656035 68.23084339 -47.56064397 64.07827526 -52.875 57.8125 C-61.01743936 46.23172198 -61.99836206 35.62611841 -60.875 21.8125 C-59.0435513 12.16175238 -53.53161224 4.19419263 -45.625 -1.5625 C-31.55539714 -10.11833957 -13.39174946 -9.62951884 0 0 Z " fill="#FCFBFC" transform="translate(551.875,627.1875)"/>
<path d="M0 0 C-0.59015185 5.50808397 -1.56663769 10.64878069 -3 16 C-6.28000599 15.47096678 -9.30767651 14.58380712 -12.4375 13.5 C-20.69084072 10.72178186 -30.40558228 8.91976331 -38.5625 12.8125 C-41.40180749 14.35316373 -42.10963222 15.16444833 -44 18 C-44.47082993 23.08496324 -44.01028897 25.89268599 -41 30 C-35.43957414 33.80992142 -29.00401007 36.05650009 -22.63818359 38.14990234 C-12.87459513 41.36688234 -3.81403108 45.21813841 2.1875 54.0625 C5.64620185 61.30690824 5.31916865 71.02800463 2.8125 78.5625 C-1.69930192 87.1193657 -7.87171541 91.90224105 -17.046875 95.04296875 C-33.22628548 99.24566928 -50.46482134 97.47885422 -65 89 C-64.54548816 87.26982492 -64.08621143 85.54090123 -63.625 83.8125 C-63.36976563 82.84957031 -63.11453125 81.88664063 -62.8515625 80.89453125 C-62.05233704 78.17789793 -61.0968638 75.60862825 -60 73 C-59.46632813 73.18175781 -58.93265625 73.36351562 -58.3828125 73.55078125 C-56.79450979 74.08662732 -55.20304225 74.6131384 -53.609375 75.1328125 C-51.96330251 75.67986054 -50.32591086 76.25450304 -48.703125 76.8671875 C-40.45564395 79.77317915 -30.10850628 80.91810212 -21.75 77.8125 C-18.64565047 75.76645144 -17.36526696 74.45332231 -16 71 C-15.57953604 67.63628832 -15.79446659 65.53952521 -17 62.375 C-21.47779684 57.05761625 -28.94376713 55.22166137 -35.375 53.125 C-46.3975005 49.34866211 -56.56960684 44.59317869 -62.1640625 33.7421875 C-64.25542013 26.88175267 -64.40216338 16.84207201 -61.3125 10.3125 C-56.51394915 2.66166368 -48.91324539 -3.19207226 -40.1796875 -5.48828125 C-26.33581504 -7.71622633 -12.63157457 -6.31578729 0 0 Z " fill="#FCFBFC" transform="translate(413,600)"/>
<path d="M0 0 C6.33125789 5.86177902 9.53997661 13.00345537 10.96875 21.45703125 C10.96875 26.40703125 10.96875 31.35703125 10.96875 36.45703125 C-5.20125 36.45703125 -21.37125 36.45703125 -38.03125 36.45703125 C-35.7456704 46.25207799 -35.7456704 46.25207799 -29.18432617 52.52856445 C-23.28074081 55.35928686 -18.46516031 55.99320261 -11.96875 55.76953125 C-11.12248047 55.75986328 -10.27621094 55.75019531 -9.40429688 55.74023438 C-4.2146305 55.64820482 0.83140434 55.18754399 5.96875 54.45703125 C6.62875 58.74703125 7.28875 63.03703125 7.96875 67.45703125 C-6.80366202 71.9872376 -21.19316628 73.90900381 -35.75390625 67.203125 C-45.28550966 61.92695841 -50.94886848 54.88474086 -54.03125 44.45703125 C-54.55177654 40.7894132 -54.6065742 37.21914565 -54.53125 33.51953125 C-54.51698975 32.55241211 -54.50272949 31.58529297 -54.48803711 30.58886719 C-54.14926985 19.14992244 -51.44417924 11.92105813 -43.39453125 3.62109375 C-31.72013877 -7.06917639 -13.17855337 -10.01063189 0 0 Z " fill="#FBFAFB" transform="translate(709.03125,625.54296875)"/>
<path d="M0 0 C-0.11455681 1.91731918 -0.24206258 3.8338675 -0.375 5.75 C-0.47941406 7.35101562 -0.47941406 7.35101562 -0.5859375 8.984375 C-0.9728223 11.80206432 -1.55686166 13.5830366 -3 16 C-3.59425781 15.71125 -4.18851562 15.4225 -4.80078125 15.125 C-12.39641853 11.72291052 -19.33378824 10.44459608 -27.375 13.125 C-32.11957843 16.51398459 -35.2356577 20.45604441 -37 26 C-37.68438759 33.93711837 -37.98837942 41.92384297 -34 49 C-30.22496935 53.05168775 -26.90839668 55.78788692 -21.21484375 56.203125 C-13.82073075 56.30888109 -7.96533879 55.49504673 -1 53 C-0.34 57.95 0.32 62.9 1 68 C-9.33178927 73.16589464 -19.88243567 75.05326627 -31.3203125 72.16015625 C-40.40824687 68.70860061 -48.17554552 62.80405084 -53.00390625 54.25 C-57.7670113 43.49098625 -59.11896493 30.19412479 -55 19 C-49.82480809 8.28586468 -43.04034399 1.47531532 -32 -3 C-22.23371912 -6.2417487 -9.07339643 -4.53669821 0 0 Z " fill="#FCFBFC" transform="translate(483,624)"/>
<path d="M0 0 C5.3184733 3.67227918 8.26650383 8.5122279 9.625 14.8125 C10.45239119 24.29395576 9.94311954 32.5492759 4.8125 40.6875 C0.76637584 44.61802062 -2.79738808 45.99487977 -8.375 46.1875 C-13.97031097 45.99426854 -17.55493038 44.63256962 -21.5625 40.625 C-27.15090039 31.95334423 -27.95255453 22.3344629 -25.8359375 12.2421875 C-24.00767502 6.95830803 -21.32730569 3.1605206 -16.75 0 C-11.02120732 -2.01568631 -5.72879268 -2.01568631 0 0 Z " fill="#2C0E45" transform="translate(536.375,636.1875)"/>
<path d="M0 0 C5.12937836 2.56468918 8.58548969 6.07430421 11.0859375 11.24609375 C13.79354132 19.40361807 12.59071228 28.83381224 9.33203125 36.65234375 C6.61278387 41.44491757 3.02189946 44.03300461 -1.875 46.375 C-9.55438564 47.91087713 -13.57857479 47.1806108 -21 44 C-21 31.13 -21 18.26 -21 5 C-13.09999897 1.04999949 -8.56217385 -0.96174184 0 0 Z " fill="#2C0E45" transform="translate(616,635)"/>
<path d="M0 0 C5.94 0 11.88 0 18 0 C18 23.76 18 47.52 18 72 C12.06 72 6.12 72 0 72 C0 48.24 0 24.48 0 0 Z " fill="#FEFEFE" transform="translate(316,622)"/>
<path d="M0 0 C4.00785669 1.79662541 5.46443165 3.19664748 7.875 6.8125 C9 10 9 10 9 17 C-1.56 17 -12.12 17 -23 17 C-21.82040816 7.56326531 -21.82040816 7.56326531 -18 3 C-12.38545939 -1.11537008 -6.70558733 -0.75068839 0 0 Z " fill="#2C1044" transform="translate(695,634)"/>
<path d="M0 0 C3.86728738 1.6814293 5.41933877 3.15233779 7 7 C7.69608513 11.52455337 7.61383227 14.9696387 5.25 18.9375 C2.14683856 21.78206465 0.31026074 22.82909642 -3.875 23.375 C-8.43500643 22.82779923 -11.53459148 20.86506539 -14.375 17.25 C-15.34165091 13.77005671 -15.68551123 10.536152 -15 7 C-11.32484669 0.64703981 -7.09099044 -0.7621794 0 0 Z " fill="#FBFAFB" transform="translate(329,590)"/>
<path d="M0 0 C0 7.59 0 15.18 0 23 C-4.88382939 21.04646825 -6.92610207 20.12780579 -10 16 C-10.84253428 11.66134218 -10.47521758 8.11676132 -8.75 4.0625 C-6.04557231 0.8751388 -4.16697946 0 0 0 Z " fill="#2C1144" transform="translate(508,371)"/>
<path d="M0 0 C6.78082192 2.71232877 6.78082192 2.71232877 9 6 C9.63013057 9.4482145 9.6523743 12.55412548 9 16 C6.13250924 19.90297354 4.72271943 20.81932014 0 22 C0 14.74 0 7.48 0 0 Z " fill="#240C3A" transform="translate(522,418)"/>
<path d="M0 0 C1.39456452 0.00667256 2.78911118 0.01863093 4.18359375 0.03515625 C4.89451172 0.03966797 5.60542969 0.04417969 6.33789062 0.04882812 C8.09899388 0.06064761 9.86005411 0.07858362 11.62109375 0.09765625 C11.62109375 0.42765625 11.62109375 0.75765625 11.62109375 1.09765625 C7.00109375 1.09765625 2.38109375 1.09765625 -2.37890625 1.09765625 C-2.37890625 5.38765625 -2.37890625 9.67765625 -2.37890625 14.09765625 C-4.07015625 14.36578125 -5.76140625 14.63390625 -7.50390625 14.91015625 C-11.94688947 15.69925752 -15.38952238 16.94952647 -19.37890625 19.09765625 C-20.03890625 18.76765625 -20.69890625 18.43765625 -21.37890625 18.09765625 C-15.71383614 15.00865424 -10.8703319 12.5210101 -4.37890625 12.09765625 C-4.39050781 11.31519531 -4.40210938 10.53273438 -4.4140625 9.7265625 C-4.42308594 8.71464844 -4.43210937 7.70273437 -4.44140625 6.66015625 C-4.45300781 5.65082031 -4.46460938 4.64148438 -4.4765625 3.6015625 C-4.32617643 -0.2543364 -3.97350921 0.11484131 0 0 Z " fill="#201037" transform="translate(510.37890625,339.90234375)"/>
<path d="M0 0 C0.66 0 1.32 0 2 0 C2 0.66 2 1.32 2 2 C2.66 2.33 3.32 2.66 4 3 C3.34 3 2.68 3 2 3 C2 10.26 2 17.52 2 25 C2.66 25 3.32 25 4 25 C4 25.99 4 26.98 4 28 C2.68 27.67 1.36 27.34 0 27 C0 18.09 0 9.18 0 0 Z " fill="#1E0B34" transform="translate(522,371)"/>
<path d="M0 0 C0.99 0 1.98 0 3 0 C2.74778514 3.40490058 1.81436101 4.16501243 -0.8125 6.5 C-1.34746094 6.91636719 -1.88242187 7.33273437 -2.43359375 7.76171875 C-4.45006321 9.35578563 -6.21895183 11.15044998 -8 13 C-7.38416899 9.37159027 -5.86239708 7.13879117 -3.625 4.25 C-3.01914062 3.45078125 -2.41328125 2.6515625 -1.7890625 1.828125 C-0.90347656 0.92320312 -0.90347656 0.92320312 0 0 Z " fill="#25113E" transform="translate(599,466)"/>
<path d="M0 0 C0.99 0 1.98 0 3 0 C3 4.62 3 9.24 3 14 C2.01 14.33 1.02 14.66 0 15 C0 10.05 0 5.1 0 0 Z " fill="#371A4F" transform="translate(625,649)"/>
<path d="M0 0 C-1 3 -1 3 -3 4 C-3.39085466 6.09508223 -3.39085466 6.09508223 -3.5 8.5 C-3.65625 10.96875 -3.65625 10.96875 -4 13 C-4.99 13.495 -4.99 13.495 -6 14 C-5.91276622 12.22825181 -5.80458345 10.45752623 -5.6875 8.6875 C-5.62949219 7.70136719 -5.57148438 6.71523438 -5.51171875 5.69921875 C-4.85878144 2.25509902 -3.74819785 0 0 0 Z " fill="#16052D" transform="translate(441,499)"/>
<path d="M0 0 C0.99 0.66 1.98 1.32 3 2 C1.625 4 1.625 4 0 6 C-0.66 6 -1.32 6 -2 6 C-2 6.99 -2 7.98 -2 9 C-2.66 9 -3.32 9 -4 9 C-2.25 2.25 -2.25 2.25 0 0 Z " fill="#240F3B" transform="translate(676,639)"/>
<path d="M0 0 C1.485 0.99 1.485 0.99 3 2 C2.67 2.99 2.34 3.98 2 5 C1.77548542 7.22574335 1.59217122 9.45581519 1.4375 11.6875 C1.35371094 12.86699219 1.26992188 14.04648437 1.18359375 15.26171875 C1.12300781 16.16535156 1.06242188 17.06898438 1 18 C0.67 18 0.34 18 0 18 C0 12.06 0 6.12 0 0 Z " fill="#361550" transform="translate(523,418)"/>
<path d="M0 0 C2.475 0.495 2.475 0.495 5 1 C5 1.66 5 2.32 5 3 C7.475 3.99 7.475 3.99 10 5 C9.01 5.495 9.01 5.495 8 6 C5.96855359 5.06553465 3.96466413 4.06775224 2 3 C2 2.34 2 1.68 2 1 C1.34 0.67 0.68 0.34 0 0 Z " fill="#27103E" transform="translate(527,397)"/>
<path d="M0 0 C0.33 0.99 0.66 1.98 1 3 C-0.40445835 5.2636564 -2.1967913 7.0208685 -4 9 C-4.33 8.34 -4.66 7.68 -5 7 C-3.35 4.69 -1.7 2.38 0 0 Z " fill="#190931" transform="translate(446,354)"/>
</svg>
